<?xml version="1.0" standalone="no"?>
<!DOCTYPE svg PUBLIC "-//W3C//DTD SVG 20010904//EN"
 "http://www.w3.org/TR/2001/REC-SVG-20010904/DTD/svg10.dtd">
<svg version="1.0" xmlns="http://www.w3.org/2000/svg"
 width="974.000000pt" height="1098.000000pt" viewBox="0 0 974.000000 1098.000000"
 preserveAspectRatio="xMidYMid meet">

<g transform="translate(0.000000,1098.000000) scale(0.100000,-0.100000)"
fill="#000000" stroke="none">
<path d="M1320 10920 c0 -5 -19 -14 -42 -21 -131 -35 -242 -142 -287 -277 -21
-61 -21 -69 -21 -1817 l0 -1755 -157 0 c-176 0 -259 -14 -356 -57 -161 -72
-298 -240 -339 -413 -20 -84 -19 -3351 1 -3430 50 -200 202 -363 406 -436 39
-14 94 -19 245 -23 l195 -6 5 -1130 c5 -1086 6 -1132 24 -1175 55 -129 162
-227 284 -259 23 -7 42 -16 42 -21 0 -7 1292 -10 3570 -10 2278 0 3570 3 3570
10 0 5 19 14 42 21 122 32 229 130 284 259 18 43 19 89 24 1175 l5 1130 195 6
c210 6 238 11 355 72 89 46 201 163 246 257 68 141 64 18 64 1845 0 1319 -3
1671 -13 1715 -41 173 -178 341 -339 413 -97 43 -180 57 -355 57 l-158 0 0
658 c0 621 -1 659 -19 698 -11 25 -432 514 -1041 1210 -562 643 -1043 1190
-1067 1215 -25 26 -63 55 -84 65 -22 9 -39 21 -39 26 0 4 -1179 8 -2620 8
-1670 0 -2620 -3 -2620 -10z m4980 -1512 c1 -596 5 -1102 9 -1126 11 -57 52
-113 104 -143 l42 -24 968 -3 967 -2 0 -530 0 -530 -3500 0 -3500 0 0 1720 0
1720 2455 0 2455 0 0 -1082z m-3910 -3047 c460 -69 737 -256 880 -598 86 -204
91 -503 13 -742 -153 -474 -644 -732 -1340 -708 l-163 6 -2 -562 -3 -562 -352
-3 -353 -2 0 1563 0 1563 133 18 c234 32 496 45 812 41 165 -2 334 -8 375 -14z
m2726 4 c420 -40 690 -133 948 -327 384 -288 561 -737 525 -1333 -27 -450
-179 -809 -456 -1076 -276 -266 -678 -415 -1243 -460 -185 -15 -705 -4 -925
19 l-160 17 -3 1556 -2 1555 132 17 c119 15 321 32 478 40 179 10 563 5 706
-8z m3884 -300 l0 -295 -607 -2 -608 -3 0 -355 0 -355 568 -3 567 -2 0 -290 0
-290 -559 0 c-461 0 -561 -2 -570 -14 -8 -10 -11 -183 -11 -627 0 -338 0 -620
0 -626 0 -10 -78 -13 -355 -13 l-355 0 0 1585 0 1585 965 0 965 0 0 -295z
m-615 -4400 l0 -1020 -3495 0 -3495 0 -3 1010 c-1 556 0 1016 3 1023 3 10 708
12 3497 10 l3493 -3 0 -1020z"/>
<path d="M1871 5829 c-35 -4 -70 -10 -78 -13 -11 -4 -13 -93 -13 -471 0 -434
1 -466 18 -473 9 -4 94 -7 187 -7 197 0 277 15 389 73 166 87 256 240 256 438
0 240 -140 401 -390 448 -88 17 -260 19 -369 5z"/>
<path d="M4617 5820 c-38 -5 -75 -11 -83 -14 -12 -5 -14 -157 -14 -1039 l0
-1034 38 -7 c57 -9 307 -7 402 4 462 53 760 331 849 790 34 175 32 436 -4 610
-34 167 -115 320 -230 435 -122 122 -268 198 -464 241 -79 18 -395 27 -494 14z"/>
</g>
</svg>
